<svg data-v-423bf9ae="" xmlns="http://www.w3.org/2000/svg" viewBox="0 0 1034 90" class="iconLeft"><!----><!----><!----><g data-v-423bf9ae="" id="00896558-91c5-4e30-b538-5a8b4ece8211" fill="#EBC416" transform="matrix(6.0667338371276855,0,0,6.0667338371276855,109.14995574951172,8.933266639709473)"><path d="M7.77 1.24L10.60 1.24L13.00 7.77L15.59 1.24L18.22 1.24L14.45 10.64L11.63 10.64L9.18 4.32L6.73 10.64L3.92 10.64L0.14 1.24L2.78 1.24L5.32 7.63L7.77 1.24ZM22.37 10.64L19.84 10.64L19.84 1.24L22.37 1.24L22.37 10.64ZM27.85 1.24L27.85 6.62L27.85 6.62Q27.85 7.21 27.96 7.58L27.96 7.58L27.96 7.58Q28.07 7.95 28.31 8.17L28.31 8.17L28.31 8.17Q28.56 8.39 28.95 8.47L28.95 8.47L28.95 8.47Q29.35 8.55 29.92 8.55L29.92 8.55L34.73 8.55L34.73 10.64L29.40 10.64L29.40 10.64Q28.29 10.64 27.52 10.46L27.52 10.46L27.52 10.46Q26.74 10.27 26.25 9.90L26.25 9.90L26.25 9.90Q25.76 9.52 25.54 8.93L25.54 8.93L25.54 8.93Q25.31 8.35 25.31 7.55L25.31 7.55L25.31 1.24L27.85 1.24ZM48.27 5.93L48.27 5.93L48.27 5.93Q48.27 6.84 48.07 7.54L48.07 7.54L48.07 7.54Q47.87 8.24 47.51 8.76L47.51 8.76L47.51 8.76Q47.15 9.28 46.65 9.64L46.65 9.64L46.65 9.64Q46.15 10.00 45.53 10.22L45.53 10.22L45.53 10.22Q44.92 10.44 44.21 10.54L44.21 10.54L44.21 10.54Q43.50 10.64 42.72 10.64L42.72 10.64L36.76 10.64L36.76 1.24L42.71 1.24L42.71 1.24Q43.48 1.24 44.19 1.34L44.19 1.34L44.19 1.34Q44.91 1.44 45.52 1.66L45.52 1.66L45.52 1.66Q46.14 1.88 46.65 2.24L46.65 2.24L46.65 2.24Q47.15 2.60 47.51 3.12L47.51 3.12L47.51 3.12Q47.87 3.64 48.07 4.34L48.07 4.34L48.07 4.34Q48.27 5.04 48.27 5.93ZM45.71 5.93L45.71 5.93L45.71 5.93Q45.71 5.26 45.54 4.76L45.54 4.76L45.54 4.76Q45.36 4.26 44.98 3.93L44.98 3.93L44.98 3.93Q44.59 3.61 43.97 3.45L43.97 3.45L43.97 3.45Q43.35 3.29 42.45 3.29L42.45 3.29L39.30 3.29L39.30 8.59L42.45 8.59L42.45 8.59Q43.35 8.59 43.97 8.43L43.97 8.43L43.97 8.43Q44.59 8.27 44.98 7.94L44.98 7.94L44.98 7.94Q45.36 7.61 45.54 7.11L45.54 7.11L45.54 7.11Q45.71 6.61 45.71 5.93ZM65.24 10.64L55.84 10.64L55.84 1.24L58.38 1.24L58.38 8.58L65.24 8.58L65.24 10.64ZM69.80 10.64L67.27 10.64L67.27 1.24L69.80 1.24L69.80 10.64ZM82.69 3.25L77.18 3.25L77.18 3.25Q76.73 3.25 76.38 3.28L76.38 3.28L76.38 3.28Q76.03 3.32 75.78 3.45L75.78 3.45L75.78 3.45Q75.54 3.58 75.41 3.83L75.41 3.83L75.41 3.83Q75.28 4.09 75.28 4.53L75.28 4.53L75.28 4.88L82.36 4.88L82.36 6.88L75.28 6.88L75.28 10.64L72.74 10.64L72.74 4.32L72.74 4.32Q72.74 3.60 72.96 3.02L72.96 3.02L72.96 3.02Q73.17 2.45 73.68 2.05L73.68 2.05L73.68 2.05Q74.18 1.66 75.02 1.45L75.02 1.45L75.02 1.45Q75.85 1.24 77.10 1.24L77.10 1.24L82.69 1.24L82.69 3.25ZM95.34 7.98L95.34 10.17L95.34 10.17Q94.19 10.55 93.03 10.72L93.03 10.72L93.03 10.72Q91.88 10.89 90.68 10.89L90.68 10.89L90.68 10.89Q89.14 10.89 87.94 10.56L87.94 10.56L87.94 10.56Q86.74 10.23 85.92 9.60L85.92 9.60L85.92 9.60Q85.10 8.97 84.67 8.06L84.67 8.06L84.67 8.06Q84.24 7.15 84.24 6.00L84.24 6.00L84.24 6.00Q84.24 4.94 84.67 4.02L84.67 4.02L84.67 4.02Q85.11 3.11 85.90 2.44L85.90 2.44L85.90 2.44Q86.70 1.76 87.83 1.38L87.83 1.38L87.83 1.38Q88.96 1.00 90.34 1.00L90.34 1.00L90.34 1.00Q91.62 1.00 92.69 1.35L92.69 1.35L92.69 1.35Q93.75 1.70 94.51 2.37L94.51 2.37L94.51 2.37Q95.27 3.05 95.69 4.04L95.69 4.04L95.69 4.04Q96.11 5.03 96.11 6.32L96.11 6.32L96.11 6.95L86.86 6.95L86.86 6.95Q86.98 7.40 87.26 7.77L87.26 7.77L87.26 7.77Q87.55 8.13 88.03 8.39L88.03 8.39L88.03 8.39Q88.52 8.65 89.23 8.80L89.23 8.80L89.23 8.80Q89.93 8.94 90.92 8.94L90.92 8.94L90.92 8.94Q91.62 8.94 92.29 8.86L92.29 8.86L92.29 8.86Q92.96 8.77 93.54 8.63L93.54 8.63L93.54 8.63Q94.12 8.49 94.59 8.32L94.59 8.32L94.59 8.32Q95.05 8.15 95.34 7.98L95.34 7.98ZM86.86 5.09L93.59 5.09L93.59 5.09Q93.56 4.74 93.38 4.37L93.38 4.37L93.38 4.37Q93.21 4.00 92.83 3.70L92.83 3.70L92.83 3.70Q92.46 3.40 91.85 3.20L91.85 3.20L91.85 3.20Q91.24 3.01 90.33 3.01L90.33 3.01L90.33 3.01Q89.48 3.01 88.85 3.22L88.85 3.22L88.85 3.22Q88.23 3.43 87.81 3.75L87.81 3.75L87.81 3.75Q87.39 4.06 87.16 4.42L87.16 4.42L87.16 4.42Q86.93 4.79 86.86 5.09L86.86 5.09ZM113.07 10.64L103.68 10.64L103.68 1.24L106.22 1.24L106.22 8.58L113.07 8.58L113.07 10.64ZM125.51 7.98L125.51 10.17L125.51 10.17Q124.35 10.55 123.20 10.72L123.20 10.72L123.20 10.72Q122.05 10.89 120.85 10.89L120.85 10.89L120.85 10.89Q119.31 10.89 118.11 10.56L118.11 10.56L118.11 10.56Q116.91 10.23 116.09 9.60L116.09 9.60L116.09 9.60Q115.27 8.97 114.84 8.06L114.84 8.06L114.84 8.06Q114.41 7.15 114.41 6.00L114.41 6.00L114.41 6.00Q114.41 4.94 114.84 4.02L114.84 4.02L114.84 4.02Q115.27 3.11 116.07 2.44L116.07 2.44L116.07 2.44Q116.87 1.76 118.00 1.38L118.00 1.38L118.00 1.38Q119.12 1.00 120.51 1.00L120.51 1.00L120.51 1.00Q121.79 1.00 122.85 1.35L122.85 1.35L122.85 1.35Q123.92 1.70 124.68 2.37L124.68 2.37L124.68 2.37Q125.44 3.05 125.86 4.04L125.86 4.04L125.86 4.04Q126.28 5.03 126.28 6.32L126.28 6.32L126.28 6.95L117.02 6.95L117.02 6.95Q117.15 7.40 117.43 7.77L117.43 7.77L117.43 7.77Q117.71 8.13 118.20 8.39L118.20 8.39L118.20 8.39Q118.69 8.65 119.39 8.80L119.39 8.80L119.39 8.80Q120.10 8.94 121.08 8.94L121.08 8.94L121.08 8.94Q121.78 8.94 122.45 8.86L122.45 8.86L122.45 8.86Q123.12 8.77 123.70 8.63L123.70 8.63L123.70 8.63Q124.28 8.49 124.75 8.32L124.75 8.32L124.75 8.32Q125.22 8.15 125.51 7.98L125.51 7.98ZM117.02 5.09L123.76 5.09L123.76 5.09Q123.72 4.74 123.55 4.37L123.55 4.37L123.55 4.37Q123.38 4.00 123.00 3.70L123.00 3.70L123.00 3.70Q122.62 3.40 122.01 3.20L122.01 3.20L122.01 3.20Q121.41 3.01 120.50 3.01L120.50 3.01L120.50 3.01Q119.64 3.01 119.02 3.22L119.02 3.22L119.02 3.22Q118.40 3.43 117.98 3.75L117.98 3.75L117.98 3.75Q117.56 4.06 117.33 4.42L117.33 4.42L117.33 4.42Q117.09 4.79 117.02 5.09L117.02 5.09ZM140.06 10.64L137.53 10.64L137.53 5.37L137.53 5.37Q137.53 4.85 137.44 4.42L137.44 4.42L137.44 4.42Q137.35 3.99 137.11 3.69L137.11 3.69L137.11 3.69Q136.87 3.38 136.44 3.22L136.44 3.22L136.44 3.22Q136.00 3.05 135.32 3.05L135.32 3.05L135.32 3.05Q134.80 3.05 134.23 3.19L134.23 3.19L134.23 3.19Q133.66 3.33 133.10 3.56L133.10 3.56L133.10 3.56Q132.54 3.79 132.03 4.10L132.03 4.10L132.03 4.10Q131.52 4.41 131.12 4.74L131.12 4.74L131.12 10.64L128.58 10.64L128.58 1.24L131.12 1.24L131.12 2.53L131.12 2.53Q131.60 2.26 132.14 1.99L132.14 1.99L132.14 1.99Q132.68 1.72 133.29 1.50L133.29 1.50L133.29 1.50Q133.90 1.28 134.58 1.14L134.58 1.14L134.58 1.14Q135.26 1.00 136.02 1.00L136.02 1.00L136.02 1.00Q136.97 1.00 137.72 1.23L137.72 1.23L137.72 1.23Q138.47 1.46 138.99 1.88L138.99 1.88L138.99 1.88Q139.51 2.30 139.78 2.90L139.78 2.90L139.78 2.90Q140.06 3.50 140.06 4.24L140.06 4.24L140.06 10.64ZM151.61 1.72L151.61 3.89L151.61 3.89Q151.35 3.76 150.91 3.60L150.91 3.60L150.91 3.60Q150.47 3.43 149.92 3.28L149.92 3.28L149.92 3.28Q149.37 3.14 148.72 3.04L148.72 3.04L148.72 3.04Q148.07 2.94 147.38 2.94L147.38 2.94L147.38 2.94Q146.84 2.94 146.45 2.97L146.45 2.97L146.45 2.97Q146.06 3.01 145.80 3.06L145.80 3.06L145.80 3.06Q145.54 3.12 145.38 3.19L145.38 3.19L145.38 3.19Q145.23 3.26 145.15 3.34L145.15 3.34L145.15 3.34Q145.07 3.41 145.04 3.49L145.04 3.49L145.04 3.49Q145.02 3.56 145.02 3.62L145.02 3.62L145.02 3.62Q145.02 3.83 145.22 3.98L145.22 3.98L145.22 3.98Q145.43 4.14 145.78 4.26L145.78 4.26L145.78 4.26Q146.14 4.38 146.61 4.48L146.61 4.48L146.61 4.48Q147.08 4.59 147.61 4.70L147.61 4.70L147.61 4.70Q148.14 4.81 148.71 4.95L148.71 4.95L148.71 4.95Q149.27 5.08 149.80 5.26L149.80 5.26L149.80 5.26Q150.33 5.43 150.80 5.67L150.80 5.67L150.80 5.67Q151.27 5.91 151.63 6.22L151.63 6.22L151.63 6.22Q151.98 6.54 152.19 6.95L152.19 6.95L152.19 6.95Q152.39 7.36 152.39 7.88L152.39 7.88L152.39 7.88Q152.39 8.56 152.15 9.04L152.15 9.04L152.15 9.04Q151.92 9.53 151.52 9.86L151.52 9.86L151.52 9.86Q151.12 10.20 150.59 10.40L150.59 10.40L150.59 10.40Q150.06 10.60 149.48 10.71L149.48 10.71L149.48 10.71Q148.91 10.82 148.32 10.86L148.32 10.86L148.32 10.86Q147.72 10.89 147.19 10.89L147.19 10.89L147.19 10.89Q145.80 10.89 144.61 10.66L144.61 10.66L144.61 10.66Q143.42 10.43 142.52 10.09L142.52 10.09L142.52 7.85L142.52 7.85Q143.45 8.37 144.65 8.66L144.65 8.66L144.65 8.66Q145.85 8.96 147.22 8.96L147.22 8.96L147.22 8.96Q148.03 8.96 148.53 8.87L148.53 8.87L148.53 8.87Q149.04 8.78 149.33 8.65L149.33 8.65L149.33 8.65Q149.62 8.52 149.72 8.36L149.72 8.36L149.72 8.36Q149.82 8.20 149.82 8.06L149.82 8.06L149.82 8.06Q149.82 7.83 149.62 7.67L149.62 7.67L149.62 7.67Q149.41 7.50 149.06 7.37L149.06 7.37L149.06 7.37Q148.70 7.25 148.23 7.14L148.23 7.14L148.23 7.14Q147.76 7.03 147.23 6.93L147.23 6.93L147.23 6.93Q146.70 6.82 146.14 6.70L146.14 6.70L146.14 6.70Q145.58 6.58 145.05 6.41L145.05 6.41L145.05 6.41Q144.52 6.24 144.05 6.02L144.05 6.02L144.05 6.02Q143.58 5.80 143.22 5.49L143.22 5.49L143.22 5.49Q142.86 5.19 142.66 4.79L142.66 4.79L142.66 4.79Q142.45 4.39 142.45 3.86L142.45 3.86L142.45 3.86Q142.45 3.24 142.67 2.79L142.67 2.79L142.67 2.79Q142.89 2.34 143.26 2.02L143.26 2.02L143.26 2.02Q143.64 1.70 144.13 1.50L144.13 1.50L144.13 1.50Q144.61 1.31 145.15 1.20L145.15 1.20L145.15 1.20Q145.69 1.09 146.25 1.05L146.25 1.05L146.25 1.05Q146.80 1.00 147.30 1.00L147.30 1.00L147.30 1.00Q147.85 1.00 148.43 1.06L148.43 1.06L148.43 1.06Q149.00 1.11 149.56 1.21L149.56 1.21L149.56 1.21Q150.12 1.31 150.65 1.44L150.65 1.44L150.65 1.44Q151.17 1.57 151.61 1.72L151.61 1.72Z"></path></g><!----><g data-v-423bf9ae="" id="c5fd9fe8-c32a-47d1-afca-09af91f65b81" transform="matrix(1.0325008630752563,0,0,1.0325008630752563,-6.210933685302734,-7.242392539978027)" stroke="none" fill="#EBC416"><path d="M50.085 7.458h-.12c-24.03.065-43.528 19.67-43.464 43.702.066 23.967 19.616 43.465 43.582 43.465h.12c11.641-.031 22.573-4.594 30.783-12.849 8.209-8.254 12.712-19.211 12.681-30.853-.065-23.966-19.616-43.465-43.582-43.465zm.112 85.167h-.114a41.287 41.287 0 0 1-16.13-3.263c10.998-9.724 36.323-4.903 39.858-4.17-6.882 4.804-15.043 7.411-23.614 7.433zm29.37-12.259a42.055 42.055 0 0 1-5.391 4.566c-1.255-7.555-27.502-8.989-27.502-8.989l-1.138-12.087c6.398-4.692 10.379-4.549 10.379-4.549l-.426-1.991c-13.364 3.981-9.242-2.56-9.242-2.56l3.981-1.138.142-1.848-3.696.427 1.279-4.125-2.132-.568c-3.696 15.64-4.692 14.075-4.692 14.075-1.28 0-4.977-8.247-4.977-8.247l-1.99.429 2.843 5.687-5.688-2.133-.142 2.701c14.075 2.701 7.25 17.772 7.25 17.772-4.081.528-12.789 5.195-14.057 5.884-9.623-7.602-15.833-19.349-15.87-32.52C8.439 28.225 27.043 9.521 49.971 9.458h.114c22.866 0 41.519 18.604 41.581 41.471.03 11.108-4.267 21.562-12.099 29.437z"></path><path d="M27.652 57.762s-2.795 2.096-4.793-1.444c0-.001 3.101-2.011 4.793 1.444zM26.937 52.757s-2.795 2.096-4.793-1.444c0 0 3.102-2.011 4.793 1.444zM29.154 61.389s-1.57 3.119-4.934.834c0 0 1.886-3.178 4.934-.834zM34.447 50.824s-1.981-2.877 1.639-4.729c-.001 0 1.882 3.179-1.639 4.729zM47.556 44.866s-1.981-2.877 1.639-4.73c-.001 0 1.882 3.179-1.639 4.73zM50.215 47.853s-.099-3.491 3.947-3.079c0 0-.148 3.693-3.947 3.079zM53.684 49.877s.858-3.386 4.639-1.884c-.001.001-1.153 3.512-4.639 1.884zM57.497 58.219s.858-3.386 4.639-1.883c0 0-1.153 3.511-4.639 1.883zM55.903 60.778s3.493-.082 3.06 3.963c0 0-3.691-.168-3.06-3.963zM55.414 55.599s-1.32-3.235 2.612-4.271c0 0 1.161 3.508-2.612 4.271zM44.023 46.564s-3.486.22-3.214-3.838c.001 0 3.696.021 3.214 3.838zM28.976 50.166s-3.489.162-3.15-3.89c0 0 3.694.082 3.15 3.89zM33.851 29.829c-.864-2.107-2.907-3.256-3.013-3.316a.78.78 0 0 0-1.047.304.768.768 0 0 0 .294 1.044c.024.014 2.441 1.39 2.6 3.649a.756.756 0 0 0 .59.69.774.774 0 0 0 .838-.357 4.317 4.317 0 0 1 1.085-1.132c.894-.639 1.875-.756 2.916-.343a.773.773 0 0 0 1.001-.434.761.761 0 0 0-.426-.996c-1.536-.608-3.05-.426-4.381.527-.164.116-.315.24-.457.364zM49.01 21.033a.77.77 0 0 0-1.044.302.766.766 0 0 0 .291 1.044c.019.008 1.844 1.053 1.963 2.738a.757.757 0 0 0 .588.688.78.78 0 0 0 .84-.357c0-.004.294-.474.807-.839.663-.475 1.361-.557 2.136-.251a.776.776 0 0 0 1.002-.434.765.765 0 0 0-.427-.996c-1.592-.629-2.912-.126-3.806.583-.747-1.576-2.268-2.433-2.35-2.478zM39.164 14.627c.007.007.847.491.897 1.222a.76.76 0 0 0 .588.69.779.779 0 0 0 .838-.357c0-.003.13-.2.345-.355.268-.189.525-.22.838-.096a.775.775 0 0 0 1-.433.762.762 0 0 0-.424-.997c-.834-.329-1.551-.172-2.095.144-.484-.739-1.188-1.136-1.233-1.162a.775.775 0 0 0-1.048.304.758.758 0 0 0 .294 1.04z"></path></g><!----></svg>